<mxfile host="Electron" agent="Mozilla/5.0 (Windows NT 10.0; Win64; x64) AppleWebKit/537.36 (KHTML, like Gecko) draw.io/28.0.6 Chrome/138.0.7204.100 Electron/37.2.3 Safari/537.36" version="28.0.6">
  <diagram name="Page-1" id="qdsN0CM4YJ_W1uLqY2Fm">
    <mxGraphModel dx="1426" dy="841" grid="1" gridSize="10" guides="1" tooltips="1" connect="1" arrows="1" fold="1" page="1" pageScale="1" pageWidth="827" pageHeight="1169" math="0" shadow="0">
      <root>
        <mxCell id="0" />
        <mxCell id="1" parent="0" />
        <mxCell id="GFijoRV-jJUfO0CtlZlc-5" value="" style="rounded=0;whiteSpace=wrap;html=1;strokeColor=none;" vertex="1" parent="1">
          <mxGeometry x="80" y="40" width="610" height="380" as="geometry" />
        </mxCell>
        <mxCell id="cEB_FiMizcE1NbPtSxzR-12" style="edgeStyle=orthogonalEdgeStyle;rounded=0;orthogonalLoop=1;jettySize=auto;html=1;exitX=0.5;exitY=0;exitDx=0;exitDy=0;entryX=0.5;entryY=1;entryDx=0;entryDy=0;" parent="1" source="cEB_FiMizcE1NbPtSxzR-1" target="cEB_FiMizcE1NbPtSxzR-3" edge="1">
          <mxGeometry relative="1" as="geometry" />
        </mxCell>
        <mxCell id="cEB_FiMizcE1NbPtSxzR-13" value="Config&lt;div&gt;a Room&lt;/div&gt;" style="edgeLabel;html=1;align=center;verticalAlign=middle;resizable=0;points=[];fontSize=16;labelBackgroundColor=none;" parent="cEB_FiMizcE1NbPtSxzR-12" vertex="1" connectable="0">
          <mxGeometry x="-0.5" relative="1" as="geometry">
            <mxPoint x="-40" y="-72" as="offset" />
          </mxGeometry>
        </mxCell>
        <mxCell id="GFijoRV-jJUfO0CtlZlc-1" style="edgeStyle=orthogonalEdgeStyle;rounded=0;orthogonalLoop=1;jettySize=auto;html=1;exitX=0.25;exitY=0;exitDx=0;exitDy=0;entryX=0;entryY=0.5;entryDx=0;entryDy=0;" edge="1" parent="1" source="cEB_FiMizcE1NbPtSxzR-1" target="cEB_FiMizcE1NbPtSxzR-3">
          <mxGeometry relative="1" as="geometry" />
        </mxCell>
        <mxCell id="GFijoRV-jJUfO0CtlZlc-2" value="Create a&lt;div&gt;Room&lt;/div&gt;" style="edgeLabel;html=1;align=center;verticalAlign=middle;resizable=0;points=[];fontSize=16;labelBackgroundColor=none;" vertex="1" connectable="0" parent="GFijoRV-jJUfO0CtlZlc-1">
          <mxGeometry x="0.3164" y="-2" relative="1" as="geometry">
            <mxPoint x="-47" y="-9" as="offset" />
          </mxGeometry>
        </mxCell>
        <mxCell id="GFijoRV-jJUfO0CtlZlc-3" style="edgeStyle=orthogonalEdgeStyle;rounded=0;orthogonalLoop=1;jettySize=auto;html=1;exitX=0.75;exitY=0;exitDx=0;exitDy=0;entryX=1;entryY=0.5;entryDx=0;entryDy=0;" edge="1" parent="1" source="cEB_FiMizcE1NbPtSxzR-1" target="cEB_FiMizcE1NbPtSxzR-3">
          <mxGeometry relative="1" as="geometry" />
        </mxCell>
        <mxCell id="GFijoRV-jJUfO0CtlZlc-4" value="Connect/Disconnect&lt;div&gt;Client&lt;/div&gt;" style="edgeLabel;html=1;align=center;verticalAlign=middle;resizable=0;points=[];fontSize=15;labelBackgroundColor=none;" vertex="1" connectable="0" parent="GFijoRV-jJUfO0CtlZlc-3">
          <mxGeometry x="0.4182" relative="1" as="geometry">
            <mxPoint x="75" as="offset" />
          </mxGeometry>
        </mxCell>
        <mxCell id="cEB_FiMizcE1NbPtSxzR-1" value="Host Device" style="rounded=0;whiteSpace=wrap;html=1;verticalAlign=top;fontSize=18;fillColor=#f5f5f5;strokeColor=#666666;fontStyle=1;fontColor=#333333;" parent="1" vertex="1">
          <mxGeometry x="190" y="290" width="140" height="120" as="geometry" />
        </mxCell>
        <mxCell id="cEB_FiMizcE1NbPtSxzR-16" style="edgeStyle=orthogonalEdgeStyle;rounded=0;orthogonalLoop=1;jettySize=auto;html=1;exitX=0;exitY=0.25;exitDx=0;exitDy=0;entryX=1;entryY=0.25;entryDx=0;entryDy=0;" parent="1" source="cEB_FiMizcE1NbPtSxzR-2" target="cEB_FiMizcE1NbPtSxzR-1" edge="1">
          <mxGeometry relative="1" as="geometry" />
        </mxCell>
        <mxCell id="cEB_FiMizcE1NbPtSxzR-17" value="User Anchor State" style="edgeLabel;html=1;align=center;verticalAlign=middle;resizable=0;points=[];fontSize=15;" parent="cEB_FiMizcE1NbPtSxzR-16" vertex="1" connectable="0">
          <mxGeometry x="0.1857" y="-3" relative="1" as="geometry">
            <mxPoint x="13" y="-17" as="offset" />
          </mxGeometry>
        </mxCell>
        <mxCell id="cEB_FiMizcE1NbPtSxzR-18" style="edgeStyle=orthogonalEdgeStyle;rounded=0;orthogonalLoop=1;jettySize=auto;html=1;exitX=0;exitY=0.75;exitDx=0;exitDy=0;entryX=1;entryY=0.75;entryDx=0;entryDy=0;" parent="1" source="cEB_FiMizcE1NbPtSxzR-2" target="cEB_FiMizcE1NbPtSxzR-1" edge="1">
          <mxGeometry relative="1" as="geometry" />
        </mxCell>
        <mxCell id="cEB_FiMizcE1NbPtSxzR-19" value="Play Model State" style="edgeLabel;html=1;align=center;verticalAlign=middle;resizable=0;points=[];fontSize=15;" parent="cEB_FiMizcE1NbPtSxzR-18" vertex="1" connectable="0">
          <mxGeometry x="0.2" y="-2" relative="1" as="geometry">
            <mxPoint x="14" y="-13" as="offset" />
          </mxGeometry>
        </mxCell>
        <mxCell id="cEB_FiMizcE1NbPtSxzR-20" style="edgeStyle=orthogonalEdgeStyle;rounded=0;orthogonalLoop=1;jettySize=auto;html=1;exitX=0;exitY=0.5;exitDx=0;exitDy=0;entryX=1;entryY=0.5;entryDx=0;entryDy=0;" parent="1" source="cEB_FiMizcE1NbPtSxzR-2" target="cEB_FiMizcE1NbPtSxzR-1" edge="1">
          <mxGeometry relative="1" as="geometry" />
        </mxCell>
        <mxCell id="cEB_FiMizcE1NbPtSxzR-21" value="Create Model/Annotation" style="edgeLabel;html=1;align=center;verticalAlign=middle;resizable=0;points=[];fontSize=15;" parent="cEB_FiMizcE1NbPtSxzR-20" vertex="1" connectable="0">
          <mxGeometry x="0.1714" y="1" relative="1" as="geometry">
            <mxPoint x="12" y="-16" as="offset" />
          </mxGeometry>
        </mxCell>
        <mxCell id="cEB_FiMizcE1NbPtSxzR-2" value="Client Device" style="rounded=0;whiteSpace=wrap;html=1;verticalAlign=top;fontSize=18;fillColor=#f5f5f5;strokeColor=#666666;fontStyle=1;fontColor=#333333;" parent="1" vertex="1">
          <mxGeometry x="540" y="290" width="140" height="120" as="geometry" />
        </mxCell>
        <mxCell id="cEB_FiMizcE1NbPtSxzR-3" value="Lightship Server" style="rounded=0;whiteSpace=wrap;html=1;verticalAlign=top;fontSize=18;fillColor=#f5f5f5;strokeColor=#666666;fontColor=#333333;fontStyle=1" parent="1" vertex="1">
          <mxGeometry x="185" y="50" width="150" height="90" as="geometry" />
        </mxCell>
        <mxCell id="cEB_FiMizcE1NbPtSxzR-4" value="Workspace" style="text;html=1;align=center;verticalAlign=middle;whiteSpace=wrap;rounded=0;fontSize=16;" parent="1" vertex="1">
          <mxGeometry x="200" y="330" width="120" height="30" as="geometry" />
        </mxCell>
        <mxCell id="cEB_FiMizcE1NbPtSxzR-5" value="Feature Anchors" style="text;html=1;align=center;verticalAlign=middle;whiteSpace=wrap;rounded=0;fontSize=16;" parent="1" vertex="1">
          <mxGeometry x="200" y="360" width="120" height="30" as="geometry" />
        </mxCell>
        <mxCell id="cEB_FiMizcE1NbPtSxzR-6" value="Room" style="text;html=1;align=center;verticalAlign=middle;whiteSpace=wrap;rounded=0;fontSize=16;" parent="1" vertex="1">
          <mxGeometry x="200" y="90" width="120" height="30" as="geometry" />
        </mxCell>
        <mxCell id="cEB_FiMizcE1NbPtSxzR-7" value="User Anchor" style="text;html=1;align=center;verticalAlign=middle;whiteSpace=wrap;rounded=0;fontSize=16;" parent="1" vertex="1">
          <mxGeometry x="550" y="320" width="120" height="30" as="geometry" />
        </mxCell>
        <mxCell id="cEB_FiMizcE1NbPtSxzR-8" value="Play Model" style="text;html=1;align=center;verticalAlign=middle;whiteSpace=wrap;rounded=0;fontSize=16;" parent="1" vertex="1">
          <mxGeometry x="550" y="350" width="120" height="30" as="geometry" />
        </mxCell>
        <mxCell id="cEB_FiMizcE1NbPtSxzR-9" value="Annotation" style="text;html=1;align=center;verticalAlign=middle;whiteSpace=wrap;rounded=0;fontSize=16;" parent="1" vertex="1">
          <mxGeometry x="550" y="380" width="120" height="30" as="geometry" />
        </mxCell>
      </root>
    </mxGraphModel>
  </diagram>
</mxfile>
